<svg xmlns="http://www.w3.org/2000/svg" viewBox="0 0 292.42 288.61"><defs><style>.cls-1{fill:#2e6ab7;}.cls-2{fill:#339fce;}.cls-3{fill:#f0b297;}.cls-4{fill:#ce5d57;}.cls-5{fill:none;}.cls-5,.cls-7{stroke:#283583;stroke-linecap:round;stroke-linejoin:round;stroke-width:5px;}.cls-6{fill:#283583;}.cls-7{fill:#cc3e3e;}</style></defs><g id="Layer_2" data-name="Layer 2"><g id="floresta"><path class="cls-1" d="M195.42,79.37l-28.7-35.82c-4.37-5.44-9-11.09-15.37-13.91a8.79,8.79,0,0,0-3.64-.89,9.34,9.34,0,0,0-3.57,1c-6.71,3-12.36,8-17.34,13.35a4,4,0,0,1-1.89,1.37,5.62,5.62,0,0,1-2.38-.34,9,9,0,0,0-7.35,2,22.61,22.61,0,0,0-5,6.06A107.35,107.35,0,0,0,95.79,88.8a3.32,3.32,0,0,0,0,1.77c.79,2.11,4.61,1,5.78,2.92a73.84,73.84,0,0,0,.08,22.94c.2,1.27.59,2.74,1.78,3.24a4,4,0,0,0,2.18,0A303.48,303.48,0,0,1,148.07,116c2.73,0,5.57,0,8.08,1,2.62-3.11,6.58-4.68,10.37-6.13a15.83,15.83,0,0,1,4.88-1.3c3.09-.15,5.95,1.48,8.62,3.06.81-3,3.43-5.22,6.19-6.69s5.8-2.39,8.49-4c3.53-2.13,8.23-6.88,8.55-11.3C203.5,87.08,197.77,82.29,195.42,79.37Z"/><path class="cls-2" d="M155.26,43.81a.93.93,0,0,0-.23,0,4.67,4.67,0,0,0-1.46.57c-4.91,2.63-10.76,2-15.75,0a3.72,3.72,0,0,0-3.93.47,87.35,87.35,0,0,0-7.68,7,4,4,0,0,0-.85,4.3,23.79,23.79,0,0,1,1.37,13.16,4,4,0,0,0,1.2,3.59q16,15.28,32.6,29.82a4.47,4.47,0,0,0,3.65,1,25.77,25.77,0,0,1,14.45,1.89,3.93,3.93,0,0,0,4.07-.56l6.23-5a3.89,3.89,0,0,0,1.25-4.3,26.64,26.64,0,0,1-.88-3.52c-1.87-8.81-5.54-19-11.84-25.51L166.27,55.05c-3.44-3.57-6.59-7.45-10.19-10.86a1.49,1.49,0,0,0-.4-.31A.85.85,0,0,0,155.26,43.81Z"/><path class="cls-2" d="M107.43,76.45a17.74,17.74,0,0,1,5.29,10.64A3.6,3.6,0,0,0,116,90.25a113.68,113.68,0,0,1,30.91,7.17L126.19,81.26a66.31,66.31,0,0,1-8.76-7.71c-1.38-1.53-4.88-7.25-7.17-7.26-1.35,0-2.81,3.2-3.83,5.77A4.05,4.05,0,0,0,107.43,76.45Z"/><path class="cls-2" d="M108.45,102.73a15.35,15.35,0,0,1,8.57,6.11,4.37,4.37,0,0,0,4.19,2,104.56,104.56,0,0,1,17.84-1.2c6.92.26,13.91,1.7,20,5.08l1.86-2.5c-5.57-5.28-13.21-7.86-20.33-10.31-5.87-2-11.82-3.74-17.8-5.35-4.15-1.12-8.52-2.63-12.94-2.54-3.63.08-3.81,2.48-3.94,5.24A3.48,3.48,0,0,0,108.45,102.73Z"/><ellipse class="cls-1" cx="157.83" cy="74.49" rx="13.5" ry="12.21" transform="translate(-9.79 123.11) rotate(-41.44)"/><path class="cls-3" d="M267,80.7c.69,1.55,1.35,3.41.45,4.84a5.6,5.6,0,0,1-2,1.65A43.51,43.51,0,0,0,251,100.85c-2.1,3.2-3.78,6.67-6,9.8-3.78,5.38-9,9.61-14.45,13.26-10.08,6.74-21.22,11.73-32.29,16.68-1.22.54-2.59,1.1-3.86.69-2.79-.91-2.5-5.19-4.66-7.17-1.37-1.26-3.49-1.32-5.28-.81s-3.41,1.5-5.17,2.13a14,14,0,0,1-12.78-1.8c-4.15,4-11.35,3.44-15.83-.21s-6.55-9.56-7-15.31a2.52,2.52,0,0,1,.5-2.14,2.36,2.36,0,0,1,1.32-.48c3.72-.44,7.56,1.11,11.17.12s6-4.17,9.28-5.93a12.75,12.75,0,0,1,13.46,1c3.58-3.15,7.26-6.36,11.7-8.09a29.86,29.86,0,0,0,3.57-1.43,16.7,16.7,0,0,0,4.63-4.4c1.65-2,3.33-4.19,3.9-6.76s-.36-5.65-2.74-6.75c-3-1.36-6.3.85-8.66,3.11-3.16,3-6,6.41-9.45,9.12-2.64,2.07-5.82,3.77-9.16,3.55s-6.66-3-6.43-6.37a10,10,0,0,1,1-3.34c2.79-6.1,6-12.1,10.46-17.12s10.28-9,16.86-10.34c8.67-1.73,17.55,1.31,26.39,1.29a38.66,38.66,0,0,0,22.86-7.72c2.61-1.94,5.26-6.18,8-2.43s5,8.5,7.25,12.71Q263.57,73.1,267,80.7Z"/><path class="cls-4" d="M255.45,88.19c-5.18,3.57-9.29,8.47-13.15,13.45-3,3.87-6,8-10.31,10.34a17.42,17.42,0,0,1-16.23.22c2,1.59,1.33,4.77.22,7.07A34.13,34.13,0,0,1,203.82,133c-2.14,1.39-4.63,2.57-7.15,2.2-.16-1.67,1-3.15,2.14-4.41l7.8-8.82a13.7,13.7,0,0,0,2.89-4.25,4.64,4.64,0,0,0-.77-4.84c-1.23-1.21-3.65-1.11-4.41.44,2.43-7-4.73-10.51-9.78-12.53,2-2.18,4.28-4.13,6.42-6.14a8.19,8.19,0,0,0,2.6-3.51c.61-2.16-.6-4.37-1.76-6.29a3.91,3.91,0,0,0-1.42-1.59,3.5,3.5,0,0,0-2.64,0c-6.71,2.15-10.65,8.89-15.91,13.57-2.24,2-5,3.71-8,3.65S167.77,98,168,95a9.44,9.44,0,0,0,10.62-.1,23.4,23.4,0,0,0,3.12-3,47.73,47.73,0,0,1,13.49-10c2.48-1.24,5.33-2.28,8-1.48,4,1.2,5.66,5.77,6.8,9.76a3.88,3.88,0,0,1,.11,2.7A3.93,3.93,0,0,1,209.08,94c-2.2,1.83-4.33,3.82-6.68,5.45-1.19.83-3.74,1.65-4.33,3.11-.77,1.92,1,3.63,1.3,5.52.41,2.63-.58,5.29-1.81,7.56a26.52,26.52,0,0,1-14.18,12.16,23.31,23.31,0,0,0,3.68-8,8.91,8.91,0,0,0,0-5.19,4,4,0,0,0-4-2.77c-1.09.14-2.08.86-3.17.77-2-.16-3.84-3-5.52-1.83,2.74,1.43,3.36,5.32,2.11,8.15s-3.8,4.82-6.3,6.64c-2.86,2.09-5.84,4.15-9.24,5.15s-7.34.79-10.14-1.38a19.94,19.94,0,0,1,4.62-10.06c-2.07-2.37-5.59-2.68-8.74-2.73a3.6,3.6,0,0,0-2.79.76c-1,1.05-.39,2.72.23,4l2.17,4.51c2.23,4.63,5,9.76,10,11,4,1,8.14-.88,11.86-2.73,2.39,2.5,6.24,3.13,9.63,2.46s6.45-2.45,9.44-4.19a5.64,5.64,0,0,0,1.68,2.63c3.19,3.39,7.32,7.09,11.85,6,3.55-.82,5.78-4.28,8.88-6.17a31,31,0,0,1,5.68-2.33c6.4-2.33,12-6.34,17.56-10.3a65.32,65.32,0,0,0,7.92-6.32c4.88-4.77,8.16-10.91,12.28-16.35A63.32,63.32,0,0,1,258.87,93c1.57-1.56,5.93-4,6.78-5.93C267.67,82.58,257.09,87.06,255.45,88.19Z"/><path class="cls-5" d="M250.81,52a56.14,56.14,0,0,1-32.65,12,88,88,0,0,1-13-.72,48.21,48.21,0,0,0-6.35-.48c-7.37.14-14.25,4.14-19.4,9.41S170.59,83.94,167,90.36a7,7,0,0,0-1.26,3.92c.18,2,2.11,3.48,4,4.28a13.24,13.24,0,0,0,8.89.67c3.44-1,6.14-3.7,8.47-6.44s4.51-5.69,7.49-7.72,7-2.94,10.17-1.21"/><path class="cls-5" d="M153.91,120.46a57.87,57.87,0,0,1,9.22-8.47,13.89,13.89,0,0,1,5.1-2.64,10.68,10.68,0,0,1,7.36,1.39c3,1.65,5.5,4.53,5.65,7.91.19,4.29-3.31,7.75-6.65,10.45a47.11,47.11,0,0,1-10.43,6.77,12.87,12.87,0,0,1-4.73,1.25,11.25,11.25,0,0,1-4.67-1,17.63,17.63,0,0,1-10.34-18.78"/><path class="cls-5" d="M179,113.24c3.07-3.83,6.33-7.8,10.86-9.69s10.67-.87,12.9,3.5c1.73,3.39.6,7.57-1.23,10.91-3.34,6.12-8.75,10.85-14.48,14.82-2.84,2-5.87,3.83-9.26,4.52s-7.23,0-9.65-2.42"/><path class="cls-5" d="M203.37,113.13c2.63-1.77,5.63-3.58,8.75-3,3.71.66,6.12,4.65,6.11,8.41s-1.92,7.26-4.12,10.32a49.31,49.31,0,0,1-9.2,9.72c-3,2.45-7.16,4.62-10.71,3-3.37-1.56-4.57-5.8-7.45-8.14"/><path class="cls-5" d="M267.76,87.32c-8.91,3.14-14.66,11.62-19.52,19.73a60.3,60.3,0,0,1-4.34,6.58,45.34,45.34,0,0,1-9.53,8.42,127.67,127.67,0,0,1-27.54,14.71"/><path class="cls-5" d="M184.37,67c-9.64-12.66-18.61-24.43-30-35.53-1.58-1.53-3.34-3.11-5.53-3.38s-4.49.93-6.42,2.2c-11.16,7.3-20.19,17.36-29.08,27.3-1.77,2-3.66,4.29-3.46,6.94.16,2.22,1.77,4,3.36,5.61,9.89,9.76,22.24,16.62,33,25.46a225.28,225.28,0,0,1,17.35,16.51"/><path class="cls-5" d="M200.3,84.59,203.2,88a3.75,3.75,0,0,1,.92,1.54,3.5,3.5,0,0,1-.66,2.37A32.69,32.69,0,0,1,194,102.23"/><path class="cls-5" d="M123.29,44.6c-1.94-.85-4.18-1.7-6.1-.8a6.93,6.93,0,0,0-2,1.62c-5.84,6.23-9.54,14.13-13,22C99.37,74,96.62,80.77,95.67,87.93c-.18,1.34-.22,2.89.76,3.82a4.43,4.43,0,0,0,2.15.92c5.66,1.27,11.44,1.89,17.16,2.84a148.26,148.26,0,0,1,45,15.21"/><path class="cls-5" d="M101.41,93.15a72.45,72.45,0,0,0-.83,22.9,5.09,5.09,0,0,0,.63,2.2c1,1.46,3,1.59,4.76,1.5,8.12-.43,16.07-2.37,24.13-3.46s16.49-1.29,24.06,1.65"/><path class="cls-3" d="M144.42,230.36c1.8.74,3.76,1.48,5.64,1a6.11,6.11,0,0,0,4-4.87,17.45,17.45,0,0,0-.43-6.58q-2-10.15-4.74-20.16a23.15,23.15,0,0,0-2.32-6.13c-2.65-4.34-7.72-6.55-12.67-7.7-4.28-1-8.85-1.43-12.5-3.87a53.48,53.48,0,0,1-4.73-4.05,26.46,26.46,0,0,0-15-6.21,1.55,1.55,0,0,0-1.2.25,1.64,1.64,0,0,0-.26,1.52l4.39,26c-5.38,1.25-11,.2-16.5.08a48.73,48.73,0,0,0-13.91,1.72,24.31,24.31,0,0,0-9.7,4.74c-6.62,5.77-7.42,15.74-6.56,24.49.54,5.41,1.77,11.24,5.91,14.77,2.94,2.5,6.88,3.42,10.65,4.26a4.09,4.09,0,0,0,2,.11c1.34-.37,1.92-1.88,2.61-3.08,2-3.37,6.07-5.08,10-5s7.63,1.59,11.07,3.43a13.4,13.4,0,0,1,14.32-3.29c1-4.2,2.26-19.5,7.44-20.25,3-.43,8.25,3.05,11,4.17Z"/><path class="cls-4" d="M84.23,216.6c-1-1.77-1.55-3.84-2.94-5.34-2.34-2.54-6.57-2.56-9.56-.81s-4.91,4.84-6.31,8a39.59,39.59,0,0,0-3.08,11.19c-.16,1.27-.38,2.75-1.51,3.35-3.89-4.24-5-10.64-3.35-16.16a23.6,23.6,0,0,1,10.59-13.11,38.26,38.26,0,0,1,16.36-5,14.27,14.27,0,0,1,6.91.63c2.15.91,4,3,3.83,5.35-.1,1.87-1.34,3.45-2.43,5C90.61,212.71,88.77,224.5,84.23,216.6Z"/><path class="cls-4" d="M107.17,235.14a6,6,0,0,0-5.23,5,9.51,9.51,0,0,1-.43,2.62c-.37.81-1.45,1.39-2.16.86C95.49,233.35,85.77,226.09,75.26,223a9.28,9.28,0,0,0-4.85-.48,3.67,3.67,0,0,0-3,3.45c6.69,2.21,14.12,5.08,16.9,11.55a5.08,5.08,0,0,0,1.22,2.07,4.69,4.69,0,0,0,2.08.78,24,24,0,0,1,11.71,6.34,2.5,2.5,0,0,0,1.2.82c1.14.23,1.88-1.1,2.5-2.09a7.42,7.42,0,0,1,6-3.41C117.16,241.84,112.49,234.63,107.17,235.14Z"/><path class="cls-4" d="M136.1,216.78c-2.14-2.65-3.92-6.61-1.77-9.26,1.11-1.37,3-2,3.87-3.54a4.2,4.2,0,0,0-1.1-4.83,8.93,8.93,0,0,0-4.83-2,8,8,0,0,1-3.29-.93c-1.43-1-1.91-2.82-2.12-4.52a27.32,27.32,0,0,1,.28-8.32c-1.3-1.53-4-.15-4.67,1.74s-.35,4-.94,5.93c-1.07,3.49-5.14,5.43-8.75,5s-6.73-2.86-9.06-5.65l2.15,13.32c.65,4,1.36,8.21,3.66,11.59,3.1,4.54,8.55,6.84,13.87,8.24s10.88,2.17,15.77,4.67c2.43,1.24,4.68,2.91,7.31,3.6,1.39.36,5.9.63,6.21-1.5.28-1.88-4.16-3.22-5.38-3.93A40.33,40.33,0,0,1,136.1,216.78Z"/><path class="cls-4" d="M100.66,201.19c-1.34,1.78-8.91,3.83-6.81,4.58,7.7,2.76,21.85,10.66,6.22,36.83,1.09-2.81,19.65-16,22.32-17.4a3.42,3.42,0,0,0,1.3-.9,3.09,3.09,0,0,0,.44-1.67l.4-5.66a14.47,14.47,0,0,1-16.47-12.11c-.32-2.1.06-4.82-2.14-5.67C104.09,198.47,101.73,199.78,100.66,201.19Z"/><path class="cls-4" d="M113.25,195.77a9.43,9.43,0,0,0,.87-5.27,19.61,19.61,0,0,0-4.46-10.23c-2.15-2.72-5-5.16-8.42-5.61a5,5,0,0,1-1.49-.32,2.55,2.55,0,0,1-1-1.06c-1.31-2.35.54-5.51,3.1-6.39s5.37-.08,7.82,1.06a34.55,34.55,0,0,1,11,8.37c1.61,1.79,3.14,4.31,2.05,6.46-.3.58-.77,1.06-1,1.65-.75,1.66.22,3.53.71,5.28a10.33,10.33,0,0,1-3.52,10.7c-2.17,1.68-6.77,3.14-9.38,1.57C106.35,200.13,112,198.09,113.25,195.77Z"/><path class="cls-6" d="M139.29,175.5c-.58-3.95-.47-8.62,2.63-11.13a4.83,4.83,0,0,1,2-1c1.95-.43,3.9.7,5.37,2a16.87,16.87,0,0,1,5.34,13.91c-.4,4-2.24,7.76-4.07,11.37-.59,1.18-1.42,2.52-2.74,2.6a3.54,3.54,0,0,1-2.12-.79c-2.07-1.37-5.32-3.52-5.86-6.13-.32-1.53.3-3.42.24-5A55.46,55.46,0,0,0,139.29,175.5Z"/><path class="cls-5" d="M136.84,185.53a23,23,0,0,1,11.28,12.32,45.31,45.31,0,0,1,2,8.49l3.32,19c.4,2.29.77,4.81-1.72,6.52a5.54,5.54,0,0,1-2.31.89c-2.64.37-5.07-.73-7.4-1.81l-15.57-7.2a4.85,4.85,0,0,1-2-1.44,2.87,2.87,0,0,1-.33-2.41,1.92,1.92,0,0,0-1.91-2.41,13.2,13.2,0,0,1-13.45-14.93,61.49,61.49,0,0,0,10-3.41,8.41,8.41,0,0,0,3.6-2.46c1.24-1.68,1.18-4,.61-6-1.16-4.08-3.67-6.91,2.11-7.39A22.94,22.94,0,0,1,136.84,185.53Z"/><path class="cls-5" d="M129.66,225.31a10.2,10.2,0,0,0-12.53,4.55c-1.78,3.44-1.4,7.58-2.45,11.31-.58,2-1.59,4-1.48,6.16s2.08,4.34,4.1,3.68"/><path class="cls-5" d="M114.28,241c-3.16-.51-6.55-.69-9.44.71s-5,4.85-3.89,7.87a3,3,0,0,0,1,1.39c1,.78,2.76.61,3.39,1.75"/><path class="cls-5" d="M100.07,246c-2.38-3.27-6.87-4.18-10.92-4.21a15.36,15.36,0,0,0-5.64.79,7,7,0,0,0-4.11,3.76,2.48,2.48,0,0,0,.24,2.64,3.73,3.73,0,0,0,2.46.68,10.24,10.24,0,0,1,4.81,1.64"/><path class="cls-5" d="M68.22,226.78a18.64,18.64,0,0,1,18.41,14.13c0,.15.13.35.28.33s0-.33,0-.18"/><path class="cls-5" d="M146.58,194.25a20.2,20.2,0,0,0,4.66-27.33c-1.5-2.25-3.78-4.34-6.48-4.29-2.95.05-5.32,2.71-6.08,5.56s-.31,5.85.06,8.78.64,6-.48,8.72"/><path class="cls-5" d="M124.06,182.34a61.92,61.92,0,0,0-8.52-9.88A20.73,20.73,0,0,0,103.88,167a6.15,6.15,0,0,0-3.42.5c-2.74,1.44-2.75,5.33-2.22,8.39a87,87,0,0,0,7.84,23.76"/><path class="cls-5" d="M57.32,235.54c-.35,5.12-4.15,9.55-8.74,11.87s-9.86,2.86-15,2.92a36.78,36.78,0,0,1-7.71-.54c-7.63-1.51-14.15-6.91-18.06-13.63S2.44,221.52,2.5,213.74c0-5.14.85-10.56,4-14.61,4.6-5.85,13-7.29,20.38-6.37s14.44,3.71,21.83,4.61a20.34,20.34,0,0,0,9.44-.7,17.27,17.27,0,0,0,7.52-5.86c2.83-3.67,4.6-8.48,3.48-13a6.1,6.1,0,0,0-2.25-3.67,3.27,3.27,0,0,0-4.05.11"/><path class="cls-4" d="M63.84,215.69c3.7-9.56,15.76-14.91,30-13-8.8-5.31-22.88-1.14-30.9,3.16-3.36,1.8-6.75,3.91-8.52,7s-1.69,6.74-1.55,10.2l.23,5.77a33.92,33.92,0,0,0,1.28,9.51C56.21,243.79,61,248.51,67,250.77c2.59,1,6.09,1.79,8.81.91-1.88-1.34,1.72-1.72-.71-2.31C63.43,246.53,60.3,224.83,63.84,215.69Z"/><path class="cls-6" d="M150.42,234.19l2-.29c1.56-.22,3.33-.59,4.1-2a3.46,3.46,0,0,0-1.1-4.14,8.68,8.68,0,0,0-4.3-1.59c-1.39-.21-3.13-.19-3.77,1a3.6,3.6,0,0,0,.27,2.92c.67,1.67,1.51,3.51,3.18,4.15"/><path class="cls-5" d="M108.47,202.22a9.12,9.12,0,0,0-9.19-2.09,12.59,12.59,0,0,0-5.6,4.33,21.23,21.23,0,0,0-4.38,15"/><path class="cls-5" d="M97.22,200.72c-10.82-2.36-22.74-1.73-32.3,3.54-4,2.18-7.5,5.19-9.44,9.07a21.89,21.89,0,0,0-1.79,5.56,38.26,38.26,0,0,0,3,23.75,11.35,11.35,0,0,0,2.87,4.06,12.07,12.07,0,0,0,4,1.91,38.06,38.06,0,0,0,14.82,1.67"/><path class="cls-6" d="M104.34,237.47c1.75-1.85,4-3.15,5.61-5.17a12,12,0,0,0,1.64-10.37,24,24,0,0,0-5.47-9.3,18.62,18.62,0,0,0-6-4.9,8.49,8.49,0,0,0-7.55,0,15.26,15.26,0,0,1,8.32-6.87c2-.68,4.59-.8,6,.8s1.13,3.65,1.37,5.58a11.67,11.67,0,0,0,9.57,9.78c2.32.35,5.28.29,6.27,2.43a3.74,3.74,0,0,1-.51,3.58,13,13,0,0,1-2.71,2.63c-2.58,2.12-5,4.68-5.78,7.94-.3,1.35-.28,2.77-.59,4.12a4.44,4.44,0,0,1-2.34,3.25,7.88,7.88,0,0,1-2.33.36,11.3,11.3,0,0,0-3.61.92c-.74.33-2.48,1.92-3.22,1.72C100.53,243.29,103.5,238.37,104.34,237.47Z"/><path class="cls-6" d="M86.25,214.23c0-1.18.35-2.34.3-3.52a6.89,6.89,0,0,0-3.79-5.48A14.19,14.19,0,0,0,76,203.84a31,31,0,0,0-15.19,4,27.08,27.08,0,0,1,10.11-6,49.87,49.87,0,0,1,20.4-2.92c1.79.12,4,.73,4.3,2.51.21,1.42-1,2.59-2,3.62a19.43,19.43,0,0,0-4.44,7.29c-.32.92-.38,3.19-1.18,3.78C86.65,217.15,86.24,215.36,86.25,214.23Z"/><path class="cls-6" d="M75.24,246.78a9.08,9.08,0,0,0,1.06-6.61,13.75,13.75,0,0,0-8.87-10.67,3.73,3.73,0,0,1-1.8-2.48,1.43,1.43,0,0,1,.24-.78c.91-1.5,2.95-1.44,4.6-1.18,4.17.65,8.56,1.6,11.63,4.67a12,12,0,0,1,3.13,5.72,6.45,6.45,0,0,1,0,3.46c-.63,2-2.48,3.08-3.94,4.43a13.72,13.72,0,0,0-2.7,3.48,5,5,0,0,1-1.19,1.71,3.3,3.3,0,0,1-1.36.54,9.32,9.32,0,0,1-5.51-.24A5.08,5.08,0,0,0,75.24,246.78Z"/><path class="cls-7" d="M148.12,2.5a141.81,141.81,0,1,0,141.8,141.8A141.81,141.81,0,0,0,148.12,2.5ZM274.05,144.3a125.49,125.49,0,0,1-30.88,82.62L66.6,48.31a125.94,125.94,0,0,1,207.45,96Zm-251.87,0a125.47,125.47,0,0,1,32-83.91l179.25,176.5A125.93,125.93,0,0,1,22.18,144.3Z"/></g></g></svg>