<svg xmlns="http://www.w3.org/2000/svg" viewBox="0 0 616.22 643.04"><defs><style>.a{fill:#fff;}</style></defs><path class="a" d="M373,622.85l-57.34-24.07a52.07,52.07,0,0,1,2.29-8.85,51.48,51.48,0,0,1,3.48-8.37l23.84,1.79q10.39.85,16.6,1.86l.17-.52q-5.57-2.9-14.4-8.4l-20.15-12.8a52.55,52.55,0,0,1,2.28-8.81,51.28,51.28,0,0,1,3.47-8.32l60.41,15a24.4,24.4,0,0,1-1.39,6.42,39.4,39.4,0,0,1-2.51,6l-25.57-6.94Q352,563.58,344.3,561l-.2.6L377,582.48a41.27,41.27,0,0,1-1.8,6.82,45.25,45.25,0,0,1-2.73,6.7l-38.91-3-.2.6q10.51,3.67,19.42,7.2l24.65,9.7a39.35,39.35,0,0,1-1.64,6.34A25.08,25.08,0,0,1,373,622.85Z" transform="translate(-315.66 -343.64)"/><path class="a" d="M397.57,545.62q-11.91,4.43-28.11-4.79t-18.4-21.65a28.27,28.27,0,0,1,17.05-29.61q11.89-4.41,28.09,4.8T414.61,516q1.5,8.89-3.53,17.64A26.2,26.2,0,0,1,397.57,545.62Zm-33.65-38.73q-6.15,10.68,12.75,21.42t25,.07Q407.85,517.71,389,507t-25.08-.11Z" transform="translate(-315.66 -343.64)"/><path class="a" d="M413.72,426.2l.83-.1,45.92,41.5a35.21,35.21,0,0,1-4.89,6.56,55.43,55.43,0,0,1-6,5.77l-34.91-11.19q-9.33-3.28-13-4.78l-.18.33q10.33,7.86,20.39,16.95l14.52,13.13a34.4,34.4,0,0,1-4,5.16,32.64,32.64,0,0,1-4.73,4.37l-45.92-41.51a34.35,34.35,0,0,1,4.76-6.42,56.37,56.37,0,0,1,6-5.77l34.59,11.4,14.07,5,.18-.33q-10.07-7.62-20.26-16.84l-9.45-8.54c-2.25-2-3.44-3.93-3.57-5.68s.74-3.63,2.58-5.64Z" transform="translate(-315.66 -343.64)"/><path class="a" d="M507.13,431.17q0,5-5.27,8.6a7.53,7.53,0,0,1-5.52,1.53,14.79,14.79,0,0,1-6-3.32l-9.22-7q-3.72-2.87-6.43-3.29a7.65,7.65,0,0,0-5.51,1.47c-.55.37-1.7,1.22-3.44,2.55l14.76,21.61A37.45,37.45,0,0,1,475,457.7a36.7,36.7,0,0,1-6,3.42l-35-51.27a34.23,34.23,0,0,1,5.43-4.32,36.58,36.58,0,0,1,6.12-3.48l13.68,20.05,2.14-1.55a3.82,3.82,0,0,0,1.64-1.82,8.85,8.85,0,0,0,.07-3l-2-18.94a10.29,10.29,0,0,1,.27-4.68c.43-1.16,1.68-2.44,3.77-3.85s4.21-2.7,6.36-3.86l1.17.42,2.5,23.86a20.75,20.75,0,0,1-.49,8,11.51,11.51,0,0,1,7.27-.74,21.25,21.25,0,0,1,7,3.59L498.6,427c.12.07.48.33,1.1.8a14,14,0,0,0,1.18.84c.18.1.51.33,1,.69a5,5,0,0,0,1.18.68c.29.1.67.26,1.16.48a4.42,4.42,0,0,0,1.43.4Z" transform="translate(-315.66 -343.64)"/><path class="a" d="M519.84,411.35l2.26,5.85v.08c2.44-1.1,4.47-2,6.11-2.63l20-8a30.68,30.68,0,0,1,1.58,4.65q1.34,6.7-5.78,9.54L521.16,430a7.86,7.86,0,0,1-6.27.16,8.26,8.26,0,0,1-4.24-4.76l-20-49.6.35-.8,36.17-14.42a25.12,25.12,0,0,1,2.39,4.71,19,19,0,0,1,1.36,6.3l-23.46,9.35,2.5,6,2.68,6.65q2.18-1,5.64-2.35l13.3-5.3a16,16,0,0,1,2.85,4.88,17.5,17.5,0,0,1,1.4,5.65l-19,7.56Z" transform="translate(-315.66 -343.64)"/><path class="a" d="M572.84,366.22l3.1-17.11a26.26,26.26,0,0,1,5.75-1.72,19.46,19.46,0,0,1,6.59-.32l.71.69L580.08,392l3.85,18.76a37.09,37.09,0,0,1-6.77,1.93,34.9,34.9,0,0,1-6.91.84l-3.92-19.11-25.47-36.5a16.41,16.41,0,0,1,7.21-3.87c2.33-.47,4.11-.4,5.36.21a9.92,9.92,0,0,1,3.63,3.62l7,10.61a122.47,122.47,0,0,1,6.59,11.72l.54-.11A104.3,104.3,0,0,1,572.84,366.22Z" transform="translate(-315.66 -343.64)"/><path class="a" d="M640.7,348.34q6.28,5.16,6.79,15.53t-5.29,16.19q-5.79,5.82-15.73,6.3l-7.57.36,1,19.76a37.45,37.45,0,0,1-7,.88,35.62,35.62,0,0,1-7-.21l-3-61.44.61-.66q15.3-1.1,20.86-1.37Q634.44,343.2,640.7,348.34Zm-23.36,6.31,1.06,21.65q2.64-.21,6.28-.39a8.54,8.54,0,0,0,5.7-2.14,8.24,8.24,0,0,0,2.54-4.16,22.17,22.17,0,0,0,.31-5.69,12.78,12.78,0,0,0-2.28-6.61c-1.41-2.08-3.61-3.06-6.59-2.91S619,354.62,617.34,354.65Z" transform="translate(-315.66 -343.64)"/><path class="a" d="M663.57,401.53q-8.88-9-7-27.48T669,348.56a28.57,28.57,0,0,1,34.14,3.49q8.88,9,7,27.48T697.71,405a28.41,28.41,0,0,1-34.14-3.47Zm22-46.27Q673.26,354,671,375.52t10.08,22.79q12.3,1.26,14.53-20.27t-10.05-22.78Z" transform="translate(-315.66 -343.64)"/><path class="a" d="M761.6,361.4a26.1,26.1,0,0,1,6,1.16,20,20,0,0,1,6.46,3.09l.15.79-24.35,22.27,9.74,34.36a14.48,14.48,0,0,1-8.68.61,11.88,11.88,0,0,1-5.32-2.76,12.23,12.23,0,0,1-2.58-5.18l-5.15-18.2L720.14,414a25.86,25.86,0,0,1-5.85-1.12,23,23,0,0,1-6.68-3.15l-.13-.89,26.71-24.14-8.88-31.46a14.48,14.48,0,0,1,8.68-.61,11.34,11.34,0,0,1,5.28,2.75,12.66,12.66,0,0,1,2.56,5.08l4.34,15.42Z" transform="translate(-315.66 -343.64)"/><path class="a" d="M386.36,786.74l-17,4.63c-3,.81-5.5.61-7.53-.62a9.44,9.44,0,0,1-4.15-5.9,9.32,9.32,0,0,1,.58-7.19c1.13-2.08,3.18-3.53,6.14-4.33l16.91-4.6.29.17.29,1.09a1.26,1.26,0,0,1-.09,1.19,2.68,2.68,0,0,1-1.27.63L365.15,776a7.62,7.62,0,0,0-4.74,3.09,6.19,6.19,0,0,0-.52,5.19A6.33,6.33,0,0,0,363,788.5a7.69,7.69,0,0,0,5.66.25l17-4.61a7.51,7.51,0,0,1,.48,1.3A5.7,5.7,0,0,1,386.36,786.74Z" transform="translate(-315.66 -343.64)"/><path class="a" d="M379.1,807.66a7.49,7.49,0,0,0,3-1.85,2.15,2.15,0,0,0,.22-2.26,5.53,5.53,0,0,0-1.88-2.32,8.9,8.9,0,0,0-3.09-1.51l-12.92,5.19a6.32,6.32,0,0,1-.6-1.19,5.65,5.65,0,0,1-.39-1.27l17.63-7.07.34.11.38.94a1.24,1.24,0,0,1,0,1.21,2.79,2.79,0,0,1-1.2.77l-.72.29a7.39,7.39,0,0,1,4.78,4.2,4.4,4.4,0,0,1-1.12,5.23q4,1.77,5.16,4.72a4.18,4.18,0,0,1-.2,4A7.23,7.23,0,0,1,385,819.6l-9.18,3.69a9.22,9.22,0,0,0-2.85,1.6,2.43,2.43,0,0,1-1.17-1.33c-.34-.84,0-1.48,1.12-1.92l10.26-4.12a7.05,7.05,0,0,0,3-1.85,2.13,2.13,0,0,0,.21-2.24,5.91,5.91,0,0,0-1.83-2.34,8.3,8.3,0,0,0-3.16-1.53l-12.91,5.19a6.59,6.59,0,0,1-.61-1.18,5.9,5.9,0,0,1-.37-1.24Z" transform="translate(-315.66 -343.64)"/><path class="a" d="M383.63,843.89a2.48,2.48,0,0,1-1.79-.47,3.53,3.53,0,0,1,1.45-3.3,8.77,8.77,0,0,1-5.54-4.1,5.16,5.16,0,0,1-.41-4.43,5.9,5.9,0,0,1,2.84-3.14,5.71,5.71,0,0,1,5.07-.43,8.37,8.37,0,0,1,3.86,4,24.2,24.2,0,0,1,1.69,4.08l1.84-1c2.43-1.25,3.08-3,2-5.09a16.06,16.06,0,0,0-4.42-4.9,2.38,2.38,0,0,1,.51-1,2.69,2.69,0,0,1,.91-.8,18.7,18.7,0,0,1,5.13,5.85c1.84,3.51.84,6.27-3,8.25l-7.14,3.7C384.92,842,383.92,842.92,383.63,843.89Zm-1.88-13.19a4.14,4.14,0,0,0-2,2,2.89,2.89,0,0,0,.19,2.5,6.3,6.3,0,0,0,2.17,2.3,8.68,8.68,0,0,0,3.51,1.3L389,837a32.18,32.18,0,0,0-1.73-4,5.11,5.11,0,0,0-2.51-2.51A3.53,3.53,0,0,0,381.75,830.7Z" transform="translate(-315.66 -343.64)"/><path class="a" d="M399.66,869.15a2.4,2.4,0,0,1-1.83-.27,3.46,3.46,0,0,1,1.08-3.43,9,9,0,0,1-6-3.47,5.1,5.1,0,0,1-.89-4.37,5.79,5.79,0,0,1,2.47-3.42,5.65,5.65,0,0,1,5-1,8.39,8.39,0,0,1,4.29,3.56,26.06,26.06,0,0,1,2.14,3.87l1.72-1.15c2.27-1.52,2.73-3.27,1.38-5.28a15.91,15.91,0,0,0-4.93-4.38,2.51,2.51,0,0,1,.39-1.09,2.68,2.68,0,0,1,.82-.89,18.86,18.86,0,0,1,5.75,5.25q3.33,4.93-2.06,8.53l-6.7,4.46C400.72,867.14,399.84,868.16,399.66,869.15Zm-3.33-12.9a4.14,4.14,0,0,0-1.79,2.2,2.89,2.89,0,0,0,.47,2.48,6.33,6.33,0,0,0,2.41,2,8.81,8.81,0,0,0,3.63.91l3.22-2.15A31,31,0,0,0,402.1,858a5.06,5.06,0,0,0-2.77-2.23,3.51,3.51,0,0,0-3,.48Z" transform="translate(-315.66 -343.64)"/><path class="a" d="M423.37,869.83a5.43,5.43,0,0,1,1,5.42,13.28,13.28,0,0,1-4.67,5.88c-2.45,1.93-4.83,2.81-7.15,2.62a7.59,7.59,0,0,1-5.54-2.87,19.61,19.61,0,0,1-3.24-6l21.55-17h.33l.61.76a1.21,1.21,0,0,1,.37,1.15,2.7,2.7,0,0,1-.93,1.08L417.89,867A7.78,7.78,0,0,1,423.37,869.83Zm-5.2,9.11q3-2.36,3.62-4.44a3.45,3.45,0,0,0-.36-3.36,6.18,6.18,0,0,0-2.54-1.89,8,8,0,0,0-3.14-.58l-9.15,7.24a10.86,10.86,0,0,0,2,3.69,4.76,4.76,0,0,0,4,1.74,9.62,9.62,0,0,0,5.57-2.4Z" transform="translate(-315.66 -343.64)"/><path class="a" d="M434,896.35c-2.52,2.37-5.07,3.53-7.67,3.48a7.91,7.91,0,0,1-7.35-7.71q.13-3.87,3.91-7.43t7.68-3.47a7.86,7.86,0,0,1,7.34,7.7Q437.78,892.79,434,896.35Zm.24-11.28a4.27,4.27,0,0,0-4.46-1.32,11.78,11.78,0,0,0-5,3,11.46,11.46,0,0,0-3.22,4.77A4.24,4.24,0,0,0,422.7,896a4.32,4.32,0,0,0,3,1.43c2,.06,4.15-1,6.36-3a11.48,11.48,0,0,0,3.23-4.77,4.23,4.23,0,0,0-1.05-4.59Z" transform="translate(-315.66 -343.64)"/><path class="a" d="M443.38,893.65a2.57,2.57,0,0,1,1.86-.3,4.31,4.31,0,0,1-.37,4.34,5.57,5.57,0,0,1,6.21.95,11.25,11.25,0,0,1,1.2,1.29,4.55,4.55,0,0,1-2.18,1.45c-.17-.19-.48-.49-.92-.89-1.64-1.49-3.68-1.68-6.12-.55l-8.8,9.6a6.41,6.41,0,0,1-1.06-.8,5.58,5.58,0,0,1-.88-1l9.41-10.25A5.55,5.55,0,0,0,443.38,893.65Z" transform="translate(-315.66 -343.64)"/><path class="a" d="M446.77,920.76a5.53,5.53,0,0,1-2.31-5.17,13.57,13.57,0,0,1,3.23-6.82c1.94-2.47,4-3.92,6.25-4.36a6.36,6.36,0,0,1,5.41,1,9.54,9.54,0,0,1,3.09,4.48l6.6-8.34h.33l.74.57c.45.36.66.7.62,1a2.71,2.71,0,0,1-.65,1.27l-13.29,16.82c-1.33,1.69-1.93,3-1.8,4a2.59,2.59,0,0,1-1.83.3,3.56,3.56,0,0,1-.11-3.45A7.36,7.36,0,0,1,446.77,920.76Zm1.69-1.65a5.61,5.61,0,0,0,2.75,1.09,7.74,7.74,0,0,0,3.31-.31l6.38-8.08a8.36,8.36,0,0,0-2.55-4.26,4.2,4.2,0,0,0-4-.63,9.71,9.71,0,0,0-4.67,3.64,10.27,10.27,0,0,0-2.53,5.19A3.58,3.58,0,0,0,448.46,919.11Z" transform="translate(-315.66 -343.64)"/><path class="a" d="M472.71,937a2.46,2.46,0,0,1-1.8.46,3.5,3.5,0,0,1-.36-3.58c-2.78.58-5.07.29-6.85-.87a5.16,5.16,0,0,1-2.55-3.67,5.75,5.75,0,0,1,.93-4.11,5.61,5.61,0,0,1,4.2-2.84,8.38,8.38,0,0,1,5.34,1.6,24.84,24.84,0,0,1,3.49,2.73l1.13-1.73q2.25-3.42-.8-5.39a15.93,15.93,0,0,0-6.27-2.12,2.49,2.49,0,0,1-.06-1.15,2.56,2.56,0,0,1,.4-1.14,18.76,18.76,0,0,1,7.35,2.59c3.35,2.17,3.83,5.06,1.47,8.66l-4.4,6.71C472.89,934.73,472.48,936,472.71,937Zm-8.15-10.57a4,4,0,0,0-.78,2.72,2.85,2.85,0,0,0,1.41,2.09,6.26,6.26,0,0,0,3,.94,8.6,8.6,0,0,0,3.69-.58l2.12-3.22a30.53,30.53,0,0,0-3.48-2.63,5.14,5.14,0,0,0-3.43-1A3.46,3.46,0,0,0,464.56,926.43Z" transform="translate(-315.66 -343.64)"/><path class="a" d="M482.75,944.24a5.48,5.48,0,0,1-3.08-4.62,13.35,13.35,0,0,1,2-7.28q2.25-4.17,5.42-5.39a6.67,6.67,0,0,1,5.8.18,7.92,7.92,0,0,1,3.75,4.37,3.28,3.28,0,0,1,2.62-.75,2.51,2.51,0,0,1,.46,1.78c-1,.3-2,1.38-3,3.26l-5.87,10.9c-1.69,3.12-3.4,5-5.11,5.75a6.72,6.72,0,0,1-6-.49,17.17,17.17,0,0,1-5.3-4.32,3.58,3.58,0,0,1,1.69-1.48,11.14,11.14,0,0,0,3.67,3.36,8.35,8.35,0,0,0,3.2,1.13,3.6,3.6,0,0,0,2.15-.48,9.33,9.33,0,0,0,2.9-3.49l1.11-2A7.92,7.92,0,0,1,482.75,944.24Zm7.63-2,4.83-9a7.14,7.14,0,0,0-3.13-3.91,4.36,4.36,0,0,0-4.15,0,9.72,9.72,0,0,0-4,4.39,10.58,10.58,0,0,0-1.64,5.55,3.42,3.42,0,0,0,1.69,3,6.16,6.16,0,0,0,3.2.74,8.07,8.07,0,0,0,3.2-.79Z" transform="translate(-315.66 -343.64)"/><path class="a" d="M513.84,948.91l-11.27-4.86q-2.54,6.33,2,8.29a11.65,11.65,0,0,0,5.9.72,2.94,2.94,0,0,1,.19,2.12,12.12,12.12,0,0,1-7.37-.81,6.9,6.9,0,0,1-3.58-3.11,7.44,7.44,0,0,1-.81-4.27,16.73,16.73,0,0,1,1.38-4.85,11.54,11.54,0,0,1,4.79-5.75,7.45,7.45,0,0,1,10.07,3.1,8.06,8.06,0,0,1,.42,1,9,9,0,0,1-.6,6.25A21,21,0,0,1,513.84,948.91Zm-.63-7.94a3.9,3.9,0,0,0-2.52-3,4.23,4.23,0,0,0-4.05.22,8.82,8.82,0,0,0-3.23,3.89l8.9,3.83.22-.49a7.65,7.65,0,0,0,.68-4.42Z" transform="translate(-315.66 -343.64)"/><path class="a" d="M531.51,951.16a7.38,7.38,0,0,0,.48-3.48,2.12,2.12,0,0,0-1.59-1.62,5.66,5.66,0,0,0-3,0,8.75,8.75,0,0,0-3.15,1.4L520,960.59a7.19,7.19,0,0,1-1.3-.29,6.68,6.68,0,0,1-1.23-.52l5.82-18,.3-.19,1,.31a1.49,1.49,0,0,1,1,.75,2.65,2.65,0,0,1-.17,1.42l-.24.74a7.43,7.43,0,0,1,6.31-1,4.43,4.43,0,0,1,3.33,4.21q3.9-1.89,6.95-.92a4.2,4.2,0,0,1,3,2.72,7,7,0,0,1-.15,4.47l-3,9.36a9.2,9.2,0,0,0-.58,3.2,2.43,2.43,0,0,1-1.78,0c-.87-.28-1.13-1-.76-2.09l3.38-10.47a7.17,7.17,0,0,0,.48-3.46,2.11,2.11,0,0,0-1.6-1.6,6.1,6.1,0,0,0-3-.09,8.36,8.36,0,0,0-3.19,1.43l-4.26,13.18a5.84,5.84,0,0,1-1.3-.3,5.66,5.66,0,0,1-1.19-.5Z" transform="translate(-315.66 -343.64)"/><path class="a" d="M562.37,972.33a5.5,5.5,0,0,1-4.32-3.5,13.35,13.35,0,0,1-.28-7.54c.6-3.09,1.79-5.33,3.56-6.74a6.67,6.67,0,0,1,5.6-1.54,7.94,7.94,0,0,1,4.88,3.08,3.29,3.29,0,0,1,2.28-1.51,2.56,2.56,0,0,1,1,1.58c-.86.57-1.49,1.91-1.89,4l-2.36,12.14c-.68,3.48-1.73,5.82-3.16,7a6.67,6.67,0,0,1-5.91,1.32,16.69,16.69,0,0,1-6.35-2.57,3.48,3.48,0,0,1,1.17-1.91,11.29,11.29,0,0,0,4.5,2.14,8.65,8.65,0,0,0,3.4.13,3.68,3.68,0,0,0,1.91-1.09,9.57,9.57,0,0,0,1.73-4.19l.44-2.29A7.92,7.92,0,0,1,562.37,972.33Zm6.69-4.18,1.94-10a7.17,7.17,0,0,0-4.15-2.82,4.33,4.33,0,0,0-4,1.2,9.75,9.75,0,0,0-2.48,5.36,10.71,10.71,0,0,0,.09,5.78A3.43,3.43,0,0,0,563,970a6.11,6.11,0,0,0,3.28-.24A8.12,8.12,0,0,0,569.06,968.15Z" transform="translate(-315.66 -343.64)"/><path class="a" d="M593.25,968l-12.18-1.56q-.69,6.76,4.24,7.4a11.74,11.74,0,0,0,5.88-.93,2.9,2.9,0,0,1,.77,2,12.14,12.14,0,0,1-7.3,1.26,6.88,6.88,0,0,1-4.32-2,7.45,7.45,0,0,1-2-3.87,16.45,16.45,0,0,1,0-5,11.65,11.65,0,0,1,3-6.84,7.46,7.46,0,0,1,11.21,1,9,9,0,0,1,1.17,6.17A18.14,18.14,0,0,1,593.25,968Zm-2.82-7.46a4,4,0,0,0-3.25-2.14,4.19,4.19,0,0,0-3.82,1.33,8.8,8.8,0,0,0-2,4.62l9.62,1.24,0-.59a7.6,7.6,0,0,0-.57-4.51Z" transform="translate(-315.66 -343.64)"/><path class="a" d="M599.33,959.32a2.6,2.6,0,0,1,1.29-1.38A4.33,4.33,0,0,1,603,961.6a5.54,5.54,0,0,1,5.5-3,11.28,11.28,0,0,1,1.74.29,4.38,4.38,0,0,1-.83,2.47c-.26,0-.68-.09-1.28-.14-2.21-.18-3.94.92-5.17,3.29l-1.05,13a6,6,0,0,1-1.34,0,5.45,5.45,0,0,1-1.27-.22l1.12-13.84A5.48,5.48,0,0,0,599.33,959.32Z" transform="translate(-315.66 -343.64)"/><path class="a" d="M626.89,977.63a2.36,2.36,0,0,1-1.3,1.31,3.53,3.53,0,0,1-2.16-2.88c-2.08,1.92-4.19,2.85-6.33,2.77A5.27,5.27,0,0,1,613,977a5.83,5.83,0,0,1-1.34-4,5.61,5.61,0,0,1,2.13-4.59,8.35,8.35,0,0,1,5.41-1.36,24.29,24.29,0,0,1,4.41.55l.07-2.06c.1-2.72-1.06-4.13-3.49-4.21a15.85,15.85,0,0,0-6.47,1.4,2.66,2.66,0,0,1-.65-1,2.81,2.81,0,0,1-.25-1.18,19,19,0,0,1,7.65-1.55q6,.22,5.75,6.67l-.3,8C625.87,975.59,626.19,976.9,626.89,977.63Zm-12.46-4.89a4.08,4.08,0,0,0,.74,2.73,2.87,2.87,0,0,0,2.29,1.07,6.37,6.37,0,0,0,3.08-.74,8.61,8.61,0,0,0,2.87-2.39l.14-3.84a30.29,30.29,0,0,0-4.35-.47,5.19,5.19,0,0,0-3.44.92A3.52,3.52,0,0,0,614.43,972.74Z" transform="translate(-315.66 -343.64)"/><path class="a" d="M637.57,976.61h1.68a3.31,3.31,0,0,1,.26,1.2,5.08,5.08,0,0,1,0,.78,19.13,19.13,0,0,1-2.83.3,3.14,3.14,0,0,1-2.25-.77,2.9,2.9,0,0,1-.93-2.23l-.57-25.43.23-.23h1a1.27,1.27,0,0,1,1.14.41,2.6,2.6,0,0,1,.31,1.39l.51,23C636.11,976.1,636.6,976.63,637.57,976.61Z" transform="translate(-315.66 -343.64)"/><path class="a" d="M661,958.37a5.55,5.55,0,0,1,5.12,2.36,13.64,13.64,0,0,1,2.15,7.23c.19,3.12-.4,5.58-1.75,7.37a6.38,6.38,0,0,1-4.72,2.86,9.47,9.47,0,0,1-5.34-1.35l.49,7.87a2.76,2.76,0,0,1-.19,1.42,1.26,1.26,0,0,1-1.11.49l-1,.06-.25-.22-1.65-27,.22-.24,1-.06a1.25,1.25,0,0,1,1.16.35,2.79,2.79,0,0,1,.36,1.38v.55A7.25,7.25,0,0,1,661,958.37Zm4.6,9.56a10.21,10.21,0,0,0-1.59-5.55,3.52,3.52,0,0,0-3-1.67,5.88,5.88,0,0,0-3,1.06,7,7,0,0,0-2.27,2.49l.61,10.09a8.56,8.56,0,0,0,4.84,1.54,4.21,4.21,0,0,0,3.4-2.15,9.82,9.82,0,0,0,1-5.81Z" transform="translate(-315.66 -343.64)"/><path class="a" d="M688.92,974.18a2.39,2.39,0,0,1-1.09,1.49,3.51,3.51,0,0,1-2.58-2.52,8.79,8.79,0,0,1-5.83,3.68,5.2,5.2,0,0,1-4.31-1.2,5.85,5.85,0,0,1-1.94-3.75,5.59,5.59,0,0,1,1.41-4.86,8.35,8.35,0,0,1,5.14-2.16,25.32,25.32,0,0,1,4.44-.12l-.24-2c-.32-2.71-1.68-3.93-4.09-3.64a15.83,15.83,0,0,0-6.18,2.35,2.68,2.68,0,0,1-.79-.85,2.82,2.82,0,0,1-.42-1.12,18.89,18.89,0,0,1,7.32-2.69c4-.45,6.2,1.46,6.69,5.73l.93,8C687.6,972.32,688.11,973.57,688.92,974.18Zm-13.07-3a4.09,4.09,0,0,0,1.15,2.59,2.88,2.88,0,0,0,2.43.71,6.29,6.29,0,0,0,2.93-1.19,8.7,8.7,0,0,0,2.47-2.79l-.45-3.83a33.4,33.4,0,0,0-4.36.19,5,5,0,0,0-3.26,1.44,3.42,3.42,0,0,0-.91,2.92Z" transform="translate(-315.66 -343.64)"/><path class="a" d="M691.67,956.8a2.63,2.63,0,0,1,.91-1.65,4.33,4.33,0,0,1,3.19,3,5.57,5.57,0,0,1,4.6-4.27,11.71,11.71,0,0,1,1.77-.13,4.59,4.59,0,0,1-.2,2.59,9.86,9.86,0,0,0-1.28.18c-2.19.36-3.59,1.84-4.22,4.44l2.15,12.81a5.91,5.91,0,0,1-1.3.33,6.24,6.24,0,0,1-1.29.1l-2.29-13.7A5.51,5.51,0,0,0,691.67,956.8Z" transform="translate(-315.66 -343.64)"/><path class="a" d="M723.07,967.73a2.39,2.39,0,0,1-.93,1.6,3.51,3.51,0,0,1-2.82-2.25c-1.53,2.38-3.33,3.8-5.42,4.26a5.26,5.26,0,0,1-4.42-.76,5.81,5.81,0,0,1-2.31-3.53,5.6,5.6,0,0,1,.9-5A8.37,8.37,0,0,1,713,959.4a25.12,25.12,0,0,1,4.4-.57l-.45-2c-.59-2.67-2.07-3.73-4.44-3.2a15.92,15.92,0,0,0-5.91,3,2.64,2.64,0,0,1-.87-.76,2.82,2.82,0,0,1-.54-1.08,18.75,18.75,0,0,1,7-3.42q5.85-1.29,7.25,5l1.74,7.82C721.57,966,722.2,967.2,723.07,967.73Zm-13.3-1.61a4.09,4.09,0,0,0,1.41,2.46,2.88,2.88,0,0,0,2.49.46,6.26,6.26,0,0,0,2.79-1.49,8.63,8.63,0,0,0,2.17-3l-.84-3.75a31.45,31.45,0,0,0-4.32.63,5.09,5.09,0,0,0-3.1,1.76A3.41,3.41,0,0,0,709.77,966.12Z" transform="translate(-315.66 -343.64)"/><path class="a" d="M740.5,943.4a5.54,5.54,0,0,1,5.56,1,13.6,13.6,0,0,1,4,6.44c1,3,1.07,5.48.22,7.57a6.33,6.33,0,0,1-3.82,4,9.41,9.41,0,0,1-5.51.06l2.51,7.49a2.83,2.83,0,0,1,.18,1.41c-.08.33-.4.59-.94.76l-.93.31-.3-.15-8.58-25.67.15-.3L734,946a1.32,1.32,0,0,1,1.22,0,2.78,2.78,0,0,1,.7,1.25l.17.51A7.25,7.25,0,0,1,740.5,943.4Zm6.92,8.06a10.24,10.24,0,0,0-3-5,3.52,3.52,0,0,0-3.32-.85,6,6,0,0,0-2.67,1.8,7.14,7.14,0,0,0-1.56,3l3.21,9.59a8.6,8.6,0,0,0,5.07.25,4.18,4.18,0,0,0,2.73-3A9.73,9.73,0,0,0,747.42,951.46Z" transform="translate(-315.66 -343.64)"/><path class="a" d="M751.57,941.21a2.61,2.61,0,0,1,.52-1.81,4.38,4.38,0,0,1,3.78,2.21,5.55,5.55,0,0,1,3.54-5.18,11,11,0,0,1,1.69-.52,4.49,4.49,0,0,1,.38,2.58,12.5,12.5,0,0,0-1.21.45c-2,.83-3.09,2.59-3.12,5.26l5,12a5.81,5.81,0,0,1-1.19.61,4.94,4.94,0,0,1-1.24.38l-5.29-12.85A5.54,5.54,0,0,0,751.57,941.21Z" transform="translate(-315.66 -343.64)"/><path class="a" d="M781.89,936.61c1.54,3.09,1.9,5.87,1.08,8.32a7.94,7.94,0,0,1-9.57,4.7q-3.69-1.27-6-5.91c-1.54-3.09-1.9-5.87-1.08-8.32a7.94,7.94,0,0,1,9.57-4.7Q779.6,932,781.89,936.61Zm-10.77-3.56a4.26,4.26,0,0,0-2.59,3.85,11.6,11.6,0,0,0,1.38,5.62,11.39,11.39,0,0,0,3.63,4.45,4.7,4.7,0,0,0,6.5-1.4,4.64,4.64,0,0,0,.41-.8c.65-1.91.31-4.22-1.05-6.94a11.6,11.6,0,0,0-3.64-4.48A4.29,4.29,0,0,0,771.12,933.05Z" transform="translate(-315.66 -343.64)"/><path class="a" d="M792.29,941.63l-8.66-14.75-2.88,1.72a5.43,5.43,0,0,1-.62-.81,6.28,6.28,0,0,1-.43-1l2.85-1.56c-1.38-2-2.16-3.13-2.33-3.42a5.75,5.75,0,0,1-.79-4.2A5,5,0,0,1,782,914.3a12.08,12.08,0,0,1,4.31-1.56,2.57,2.57,0,0,1,.35,1.91,12.39,12.39,0,0,0-3.38,1.25,2.85,2.85,0,0,0-1.52,2,4,4,0,0,0,.64,2.71,32.65,32.65,0,0,0,2.34,3.37l5-3a5.26,5.26,0,0,1,.64.85,4.79,4.79,0,0,1,.41.93l-4.85,2.77,8.65,14.74a6.69,6.69,0,0,1-1.07.76A7,7,0,0,1,792.29,941.63Z" transform="translate(-315.66 -343.64)"/><path class="a" d="M791.18,915.53a3,3,0,0,1-1-1,2.69,2.69,0,0,1-.52-1.27,2.8,2.8,0,0,1,1.17-1.24,2.57,2.57,0,0,1,1.57-.56,2.82,2.82,0,0,1,1,1,3.3,3.3,0,0,1,.56,1.34c-.08.36-.45.76-1.11,1.19A2.87,2.87,0,0,1,791.18,915.53Zm6.49,3.33,9.18,13.78a6.5,6.5,0,0,1-1.05.83,6.6,6.6,0,0,1-1.17.63l-8.43-12.64a2.3,2.3,0,0,0-1.11-1,1.64,1.64,0,0,0-1.26.36l-.29.19a3.62,3.62,0,0,1-.63-.72,5.46,5.46,0,0,1-.48-.93,15.11,15.11,0,0,1,1.48-1.16l.26-.17a2.34,2.34,0,0,1,1.88-.4,2.85,2.85,0,0,1,1.62,1.23Z" transform="translate(-315.66 -343.64)"/><path class="a" d="M810.93,928.17a2.69,2.69,0,0,1-.31-2.21,11.71,11.71,0,0,0,5.35-1.77,5.45,5.45,0,0,0,2.11-2.67,2.83,2.83,0,0,0-.41-2.55c-.86-1.13-2.29-1.41-4.3-.82l-2.29.65q-5.16,1.49-7.25-1.29a4.53,4.53,0,0,1-.83-4.19,7.43,7.43,0,0,1,2.94-4,13.79,13.79,0,0,1,5.28-2.41,2.79,2.79,0,0,1,.61,2.17,11.56,11.56,0,0,0-4.4,1.84,4.78,4.78,0,0,0-2,2.49,2.43,2.43,0,0,0,.38,2.18,2.31,2.31,0,0,0,1.67,1,8.24,8.24,0,0,0,2.66-.34l2.38-.66c3.3-.91,5.69-.39,7.18,1.58a4.69,4.69,0,0,1,.84,4.37,8.67,8.67,0,0,1-3.35,4.33A11.84,11.84,0,0,1,810.93,928.17Z" transform="translate(-315.66 -343.64)"/><path class="a" d="M825.34,917.16a2.63,2.63,0,0,1-.47-2.17,11.65,11.65,0,0,0,5.19-2.17A5.32,5.32,0,0,0,832,910a2.82,2.82,0,0,0-.61-2.51c-.95-1.07-2.4-1.24-4.34-.49l-2.25.83q-5,1.86-7.32-.73a4.61,4.61,0,0,1-1.16-4.13,7.59,7.59,0,0,1,2.62-4.21A13.68,13.68,0,0,1,824,896a2.91,2.91,0,0,1,.78,2.12,11.26,11.26,0,0,0-4.26,2.17,4.8,4.8,0,0,0-1.75,2.63,2.38,2.38,0,0,0,.54,2.14,2.31,2.31,0,0,0,1.75.88,7.85,7.85,0,0,0,2.62-.54l2.33-.84q4.82-1.74,7.28,1a4.66,4.66,0,0,1,1.17,4.29,8.63,8.63,0,0,1-3,4.57A11.75,11.75,0,0,1,825.34,917.16Z" transform="translate(-315.66 -343.64)"/><path class="a" d="M824.42,889.1a3.1,3.1,0,0,1-1.2-.82,2.67,2.67,0,0,1-.76-1.14,2.71,2.71,0,0,1,.9-1.44,2.64,2.64,0,0,1,1.43-.87,2.76,2.76,0,0,1,1.14.76,3.21,3.21,0,0,1,.82,1.2,2.24,2.24,0,0,1-.85,1.39A2.92,2.92,0,0,1,824.42,889.1Zm7,2,11.73,11.71a6.31,6.31,0,0,1-.86,1,5.42,5.42,0,0,1-1,.85l-10.76-10.74a2.29,2.29,0,0,0-1.3-.8,1.66,1.66,0,0,0-1.16.6l-.25.25a4.83,4.83,0,0,1-.76-.59,5.21,5.21,0,0,1-.65-.82,12.69,12.69,0,0,1,1.22-1.42l.22-.22a2.35,2.35,0,0,1,1.76-.76,2.8,2.8,0,0,1,1.83.93Z" transform="translate(-315.66 -343.64)"/><path class="a" d="M851.31,879.82c2.61,2.28,4,4.71,4.19,7.28a7.87,7.87,0,0,1-7,8q-3.9.23-7.8-3.19c-2.61-2.28-4-4.7-4.19-7.28a7.87,7.87,0,0,1,7-8C846.11,876.48,848.71,877.55,851.31,879.82Zm-11.32.79a4.24,4.24,0,0,0-.92,4.54,13.27,13.27,0,0,0,8.49,7.42,4.3,4.3,0,0,0,4.39-1.52,4.22,4.22,0,0,0,1.16-3.13q-.2-3-3.63-6a11.57,11.57,0,0,0-5.08-2.77,4.31,4.31,0,0,0-4.4,1.46Z" transform="translate(-315.66 -343.64)"/><path class="a" d="M860.69,861l7.95,5.8a9.4,9.4,0,0,0,2.85,1.59,2.28,2.28,0,0,1-.53,1.7c-.54.73-1.28.75-2.23.06l-8.88-6.49a7.16,7.16,0,0,0-3.2-1.56,2.44,2.44,0,0,0-2.18,1.21,7.64,7.64,0,0,0-1.3,3.24,8.76,8.76,0,0,0,.1,3.64l11.25,8.22a6.29,6.29,0,0,1-.69,1.14,6.43,6.43,0,0,1-.88,1l-15.36-11.21V869l.6-.82c.33-.46.68-.68,1-.65a2.62,2.62,0,0,1,1.29.61l.63.46a9.87,9.87,0,0,1,.19-3.75,9.66,9.66,0,0,1,1.56-3.42,4.37,4.37,0,0,1,3.62-2.06A7.43,7.43,0,0,1,860.69,861Z" transform="translate(-315.66 -343.64)"/><path class="a" d="M882.41,849.84a2.42,2.42,0,0,1,.51,1.78,3.55,3.55,0,0,1-3.59.45c.66,2.75.43,5-.7,6.83a5.2,5.2,0,0,1-3.62,2.62,5.85,5.85,0,0,1-4.16-.81,5.62,5.62,0,0,1-3-4.11,8.26,8.26,0,0,1,1.48-5.34,24,24,0,0,1,2.65-3.54l-1.76-1.08c-2.33-1.43-4.14-1.12-5.41.93a15.9,15.9,0,0,0-2,6.29,2.68,2.68,0,0,1-1.16.09,2.82,2.82,0,0,1-1.16-.37A18.66,18.66,0,0,1,863,846.2q3.15-5.06,8.67-1.67l6.86,4.2C880.13,849.72,881.43,850.1,882.41,849.84ZM872,858.21a4,4,0,0,0,2.75.7,2.86,2.86,0,0,0,2.07-1.44,6.22,6.22,0,0,0,.87-3,8.46,8.46,0,0,0-.67-3.65l-3.3-2a32.6,32.6,0,0,0-2.55,3.53,5,5,0,0,0-.89,3.43A3.46,3.46,0,0,0,872,858.21Z" transform="translate(-315.66 -343.64)"/><path class="a" d="M866,834.21a3.24,3.24,0,0,1-1.39-.44,2.65,2.65,0,0,1-1-.88,2.72,2.72,0,0,1,.45-1.64,2.62,2.62,0,0,1,1.12-1.23,2.66,2.66,0,0,1,1.31.41,3.12,3.12,0,0,1,1.13.91,2.37,2.37,0,0,1-.42,1.57A2.8,2.8,0,0,1,866,834.21Zm7.3-.08L887.9,842a5.3,5.3,0,0,1-.53,1.22,5.73,5.73,0,0,1-.74,1.1l-13.4-7.24a2.39,2.39,0,0,0-1.47-.4,1.67,1.67,0,0,0-1,.91l-.16.31a4.3,4.3,0,0,1-.9-.35,5,5,0,0,1-.85-.6,11.87,11.87,0,0,1,.76-1.71l.14-.28a2.35,2.35,0,0,1,1.47-1.22,2.89,2.89,0,0,1,2.07.37Z" transform="translate(-315.66 -343.64)"/><path class="a" d="M889.35,836.34a2.65,2.65,0,0,1-1.28-1.82,11.52,11.52,0,0,0,3.94-4,5.33,5.33,0,0,0,.65-3.34,2.86,2.86,0,0,0-1.53-2.08q-1.93-.93-4.2,1.22L885.18,828q-3.9,3.64-7,2.14a4.59,4.59,0,0,1-2.66-3.36,7.45,7.45,0,0,1,.77-4.9,13.66,13.66,0,0,1,3.6-4.53,2.87,2.87,0,0,1,1.54,1.65,11.22,11.22,0,0,0-3.07,3.64,4.73,4.73,0,0,0-.6,3.1,2.45,2.45,0,0,0,1.33,1.77,2.38,2.38,0,0,0,2,.14,8.18,8.18,0,0,0,2.21-1.51l1.81-1.67q3.76-3.47,7.12-1.85a4.66,4.66,0,0,1,2.74,3.51,8.58,8.58,0,0,1-1,5.37A11.71,11.71,0,0,1,889.35,836.34Z" transform="translate(-315.66 -343.64)"/><path class="a" d="M905,806a5.57,5.57,0,0,1-4.27,3.73,13.66,13.66,0,0,1-7.52-1q-4.41-1.66-6-4.64a6.31,6.31,0,0,1-.69-5.41,9.69,9.69,0,0,1,3.39-4.28l-10-3.77-.14-.3.34-.87c.2-.54.47-.83.8-.9a2.66,2.66,0,0,1,1.42.24l20.11,7.6q3,1.14,4.41.5a2.55,2.55,0,0,1,.83,1.65,3.59,3.59,0,0,1-3.27,1.13A7.26,7.26,0,0,1,905,806Zm-2-1.15a5.51,5.51,0,0,0,.22-2.93,7.49,7.49,0,0,0-1.28-3l-9.66-3.64A8.27,8.27,0,0,0,889,799a4.17,4.17,0,0,0,.58,4,9.74,9.74,0,0,0,4.89,3.34,10.39,10.39,0,0,0,5.74.86A3.62,3.62,0,0,0,903,804.85Z" transform="translate(-315.66 -343.64)"/><path class="a" d="M905.89,775l-3.7,11.64q6.6,1.86,8.09-2.85a11.54,11.54,0,0,0,.11-5.92,3,3,0,0,1,2.09-.4,11.9,11.9,0,0,1,0,7.37,7,7,0,0,1-2.75,3.87,7.66,7.66,0,0,1-4.18,1.24,16.66,16.66,0,0,1-5-.86,11.76,11.76,0,0,1-6.26-4.14,6.64,6.64,0,0,1-1-6.23,6.78,6.78,0,0,1,3.93-4.56,9.27,9.27,0,0,1,6.32-.06A19.62,19.62,0,0,1,905.89,775ZM898,776.47a4,4,0,0,0-2.69,2.81,4.12,4.12,0,0,0,.65,4,8.83,8.83,0,0,0,4.22,2.79l2.91-9.19-.52-.17A7.92,7.92,0,0,0,898,776.47Z" transform="translate(-315.66 -343.64)"/><path class="a" d="M916.44,764.08a2.69,2.69,0,0,1-1.65-1.5,11.77,11.77,0,0,0,3-4.75,5.49,5.49,0,0,0-.09-3.4,2.86,2.86,0,0,0-2-1.7q-2.09-.5-3.84,2.08l-1.35,2q-3,4.4-6.41,3.6a4.65,4.65,0,0,1-3.34-2.71,7.58,7.58,0,0,1-.29-5,13.56,13.56,0,0,1,2.53-5.2,2.9,2.9,0,0,1,1.87,1.29A11.14,11.14,0,0,0,902.7,753a4.79,4.79,0,0,0,.08,3.15,2.45,2.45,0,0,0,1.69,1.44,2.31,2.31,0,0,0,1.93-.28,7.89,7.89,0,0,0,1.84-1.94l1.41-2c2-2.79,4.14-3.89,6.55-3.32a4.71,4.71,0,0,1,3.44,2.83,8.68,8.68,0,0,1,.2,5.47A11.78,11.78,0,0,1,916.44,764.08Z" transform="translate(-315.66 -343.64)"/><path class="a" d="M923.9,731.54A2.42,2.42,0,0,1,925,733a3.55,3.55,0,0,1-3.19,1.68q2.38,3.51,1.78,6.64a5.19,5.19,0,0,1-2.46,3.72,5.83,5.83,0,0,1-4.18.7,5.64,5.64,0,0,1-4.24-2.79,8.21,8.21,0,0,1-.52-5.52,23.91,23.91,0,0,1,1.22-4.24l-2-.39c-2.69-.52-4.27.41-4.73,2.77a15.68,15.68,0,0,0,.4,6.57,2.48,2.48,0,0,1-1,.5,2.75,2.75,0,0,1-1.21.06,18.76,18.76,0,0,1-.37-7.75c.76-3.89,3.26-5.44,7.51-4.62l7.92,1.52C921.74,732.22,923.06,732.12,923.9,731.54ZM917.12,743a4.2,4.2,0,0,0,2.83-.31,2.86,2.86,0,0,0,1.42-2.09,6.17,6.17,0,0,0-.27-3.13,8.57,8.57,0,0,0-1.93-3.19l-3.8-.73a30.25,30.25,0,0,0-1.13,4.2,5,5,0,0,0,.39,3.52A3.51,3.51,0,0,0,917.12,743Z" transform="translate(-315.66 -343.64)"/><path class="a" d="M904.83,717.71l-5.16-6.05a3.62,3.62,0,0,1,1-1.23,4.29,4.29,0,0,1,1.38-.74l4.08,6.95A1.77,1.77,0,0,1,904.83,717.71Zm15.52,7.09-9.71-1.41a9.21,9.21,0,0,0-3.31-.09,2.28,2.28,0,0,1-.34-1.74c.14-.9.78-1.26,1.94-1.09l10.92,1.58a7.24,7.24,0,0,0,3.55-.11,2.38,2.38,0,0,0,1.35-2.07,7.36,7.36,0,0,0-.38-3.45,9.37,9.37,0,0,0-1.76-3.2l-13.86-2a6,6,0,0,1,.08-1.33,5.3,5.3,0,0,1,.3-1.25l13.62,2c2.12.31,3.59.16,4.42-.46a2.35,2.35,0,0,1,1.17,1.43,3.55,3.55,0,0,1-3.19,1.86,10.17,10.17,0,0,1,1.66,3.48,9.35,9.35,0,0,1,.27,3.83,4.33,4.33,0,0,1-2.22,3.51,7.51,7.51,0,0,1-4.51.51Z" transform="translate(-315.66 -343.64)"/><path class="a" d="M930,698.45a5.56,5.56,0,0,1-3.15,4.71,13.77,13.77,0,0,1-7.53.94q-4.71-.47-7.05-2.91a6.3,6.3,0,0,1-2.09-5.06,9.55,9.55,0,0,1,2.16-5l-10.62-1.06-.21-.26.09-.93a1.28,1.28,0,0,1,.54-1.08,2.79,2.79,0,0,1,1.43-.13L925,689.82c2.15.21,3.62,0,4.39-.65a2.6,2.6,0,0,1,1.24,1.37,3.59,3.59,0,0,1-2.87,1.94A7.27,7.27,0,0,1,930,698.45Zm-2.31-.54a5.53,5.53,0,0,0-.55-2.89,7.42,7.42,0,0,0-2-2.61l-10.28-1a8.23,8.23,0,0,0-2.25,4.42,4.13,4.13,0,0,0,1.59,3.68,9.81,9.81,0,0,0,5.6,2,10.54,10.54,0,0,0,5.77-.65,3.61,3.61,0,0,0,2.16-3Z" transform="translate(-315.66 -343.64)"/><path class="a" d="M923.08,668.48l-.74,12.19q6.85.21,7.15-4.72a11.59,11.59,0,0,0-1.34-5.77,3,3,0,0,1,1.93-.89,12.07,12.07,0,0,1,1.77,7.15,6.86,6.86,0,0,1-1.72,4.42,7.53,7.53,0,0,1-3.76,2.21,16.48,16.48,0,0,1-5,.38,11.85,11.85,0,0,1-7.09-2.5,7.36,7.36,0,0,1-.58-10.39,6.28,6.28,0,0,1,.83-.8,9.21,9.21,0,0,1,6.11-1.58A20.07,20.07,0,0,1,923.08,668.48Zm-7.29,3.31a3.89,3.89,0,0,0-1.93,3.37,4.12,4.12,0,0,0,1.6,3.7,9,9,0,0,0,4.78,1.69l.57-9.63h-.54a7.66,7.66,0,0,0-4.48.87Z" transform="translate(-315.66 -343.64)"/></svg>